HIERARCHY
ROOT hip
{
	OFFSET 0.000000 0.000000 0.000000 
	CHANNELS 6 Xposition Yposition Zposition Xrotation Zrotation Yrotation
	JOINT abdomen
	{
		OFFSET 0.000000 3.402643 0.000000 
		CHANNELS 3 Xrotation Zrotation Yrotation
		JOINT chest
		{
			OFFSET 0.000000 8.438565 -0.680529 
			CHANNELS 3 Xrotation Zrotation Yrotation
			JOINT neck
			{
				OFFSET 0.000000 10.207942 -0.272212 
				CHANNELS 3 Xrotation Zrotation Yrotation
				JOINT head
				{
					OFFSET 0.000000 3.130431 0.000000 
					CHANNELS 3 Xrotation Zrotation Yrotation
					End Site
					{
						OFFSET 0.000000 3.130435 0.000000 
					}
				}
			}
			JOINT lCollar
			{
				OFFSET 3.470700 6.669187 -0.816635 
				CHANNELS 3 Yrotation Zrotation Xrotation
				JOINT lShldr
				{
					OFFSET 3.198488 0.000000 0.000000 
					CHANNELS 3 Zrotation Yrotation Xrotation
					JOINT lForeArm
					{
						OFFSET 10.139888 0.000000 0.000000 
						CHANNELS 3 Yrotation Zrotation Xrotation
						JOINT lHand
						{
							OFFSET 8.370511 0.000000 0.000000 
							CHANNELS 3 Zrotation Yrotation Xrotation
							End Site
							{
								OFFSET 4.083176 0.000000 0.000000 
							}
						}
					}
				}
			}
			JOINT rCollar
			{
				OFFSET -3.470700 6.669187 -0.816635 
				CHANNELS 3 Yrotation Zrotation Xrotation
				JOINT rShldr
				{
					OFFSET -3.198488 0.000000 0.000000 
					CHANNELS 3 Zrotation Yrotation Xrotation
					JOINT rForeArm
					{
						OFFSET -10.139888 0.000000 0.000000 
						CHANNELS 3 Yrotation Zrotation Xrotation
						JOINT rHand
						{
							OFFSET -8.370511 0.000000 0.000000 
							CHANNELS 3 Zrotation Yrotation Xrotation
							End Site
							{
								OFFSET -4.083176 0.000000 0.000000 
							}
						}
					}
				}
			}
		}
	}
	JOINT lThigh
	{
		OFFSET 5.308129 -1.633274 1.361059 
		CHANNELS 3 Xrotation Zrotation Yrotation
		JOINT lShin
		{
			OFFSET -2.041588 -20.007561 0.000000 
			CHANNELS 3 Xrotation Zrotation Yrotation
			JOINT lFoot
			{
				OFFSET 0.000000 -19.190928 -1.224953 
				CHANNELS 3 Xrotation Yrotation Zrotation
				End Site
				{
					OFFSET 0.000000 -2.449906 4.627600 
				}
			}
		}
	}
	JOINT rThigh
	{
		OFFSET -5.308129 -1.633274 1.361059 
		CHANNELS 3 Xrotation Zrotation Yrotation
		JOINT rShin
		{
			OFFSET 2.041588 -20.007561 0.000000 
			CHANNELS 3 Xrotation Zrotation Yrotation
			JOINT rFoot
			{
				OFFSET 0.000000 -19.190928 -1.224953 
				CHANNELS 3 Xrotation Yrotation Zrotation
				End Site
				{
					OFFSET 0.000000 -2.449906 4.627600 
				}
			}
		}
	}
}
MOTION
Frames: 6
Frame Time: 0.016667
-3.114500 44.900074 -9.640646 -26.825327 -17.202797 -53.437428 47.053143 31.099272 19.555363 1.702470 3.954029 2.445002 -0.694985 11.483973 0.073167 27.101284 8.712489 -38.789940 -8.847604 -10.289894 -0.543252 -39.501751 13.042843 -11.761350 -69.706245 5.000000 -6.182667 1.471828 -10.675026 45.000000 10.698815 14.824244 -0.792287 68.546379 64.808723 45.000000 97.271584 -5.000000 2.479069 21.734993 -2.716046 11.234124 -20.766272 24.622421 3.098125 71.073967 -2.819845 -9.663272 18.190596 -3.222318 -10.758210 10.966002 -28.998648 2.910586 71.661385 1.333999 4.698767 -43.847874 -23.764410 5.111432 
-2.842474 44.718288 -9.847452 -26.369593 -16.939804 -54.481155 48.218353 31.092009 20.151459 1.734169 3.905550 2.102413 0.041956 11.060894 0.218489 27.756207 6.910657 -35.954762 -8.643765 -10.416705 -0.551551 -39.633156 13.374269 -12.152278 -68.964241 5.000000 -6.391170 1.055316 -10.712700 45.000000 10.537325 15.136326 -0.810977 67.056808 64.599594 45.000000 97.697655 -5.000000 2.637467 22.032862 -2.784474 10.931315 -21.356388 24.930138 3.726048 72.338097 -2.672761 -9.897492 21.634853 -1.650620 -10.694972 8.553217 -29.210691 4.244552 73.070976 1.324137 5.210030 -44.054333 -23.654970 5.174930 
-2.570448 44.536503 -10.054253 -25.906555 -16.667852 -55.535381 49.377247 31.082886 20.751358 1.756357 3.847233 1.759829 0.777128 10.628148 0.363395 28.327429 5.082237 -33.164429 -8.438145 -10.544950 -0.548605 -39.778728 13.696172 -12.553817 -68.234047 5.000000 -6.589049 0.642093 -10.747833 45.000000 10.363662 15.459914 -0.818390 65.583618 64.384888 45.000000 98.114510 -5.000000 2.792497 22.320204 -2.860659 10.634349 -21.948139 25.247532 4.354348 73.611275 -2.516414 -10.131815 25.115055 -0.108454 -10.754414 6.152539 -29.362644 5.576005 74.431496 1.309353 5.724699 -44.307674 -23.615648 5.170341 
-2.354810 44.378548 -10.189641 -25.252092 -16.646711 -56.411877 50.409363 31.161663 21.636717 1.850209 3.866943 1.476435 1.588473 10.033784 0.482447 28.484325 3.404905 -30.381426 -8.448262 -10.397233 -0.550548 -40.062763 13.758922 -12.813328 -67.472504 5.000000 -6.803324 0.595303 -10.843143 45.000000 10.099845 15.450163 -0.817885 64.366920 64.178726 45.000000 98.313919 -5.000000 2.878539 22.753202 -2.946970 11.076685 -21.395708 25.701874 5.388208 72.549500 -2.077225 -7.826761 26.570442 -0.410354 -10.799379 4.385102 -29.089964 6.445916 75.316231 1.250482 5.844406 -44.259293 -23.285900 5.384398 
-2.139186 44.220600 -10.325014 -24.595848 -16.616173 -57.287563 51.443245 31.230917 22.517015 1.943182 3.876844 1.182638 2.404808 9.436579 0.582491 28.562340 1.722178 -27.611130 -8.456602 -10.250950 -0.541253 -40.360157 13.818522 -13.089334 -66.712776 5.000000 -7.012266 0.541650 -10.943323 45.000000 9.835885 15.430661 -0.816875 63.166840 63.969975 45.000000 98.513550 -5.000000 2.962262 23.177067 -3.034478 11.509316 -20.848156 26.159742 6.404075 71.528374 -1.617561 -5.529891 28.128899 -0.625383 -10.822351 2.607829 -28.770317 7.279988 76.229546 1.162317 5.962778 -44.209213 -22.994316 5.551093 
-1.924291 44.083721 -10.456656 -24.094492 -16.479881 -57.982212 52.252922 31.043827 23.022741 2.089941 3.964795 0.968145 3.038427 8.852988 0.639900 28.640182 0.026652 -24.531252 -8.433038 -10.008581 -0.519177 -40.621773 13.800088 -13.304995 -66.097260 5.000000 -7.238222 0.560895 -11.037103 45.000000 9.594547 15.438784 -0.826661 62.189816 63.980854 45.000000 98.514503 -5.000000 2.965008 23.340450 -2.871594 11.892278 -20.398535 26.442072 7.163905 70.894257 -1.178163 -3.669041 26.468889 -2.173158 -9.641411 1.026610 -28.598692 7.965835 76.963280 1.084947 6.180199 -44.157345 -22.768234 5.480731 
